<svg width="102" height="95" viewBox="0 0 102 95" fill="none" xmlns="http://www.w3.org/2000/svg">
<path d="M102 0H0V95H102V0Z" fill="#BA0C2F"/>
<path d="M22.9342 40.6349V37.3419C22.9342 35.7887 22.493 35.4158 21.6111 35.4158C20.7291 35.4158 20.288 35.7887 20.288 37.3419V41.1319C20.288 43.3687 27.2182 49.4577 27.2182 52.5643V58.0319C27.2182 62.0704 24.2571 63.251 21.6111 63.251C18.965 63.251 16.0039 62.0704 16.0039 58.0319V56.3543L20.288 53.8691V57.659C20.288 59.2125 20.7291 59.5852 21.6111 59.5852C22.4301 59.5852 22.9342 59.2125 22.9342 57.659V54.4282C22.9342 50.0791 16.0039 46.4133 16.0039 41.3805V36.9691C16.0039 32.9305 18.965 31.75 21.6111 31.75C24.2571 31.75 27.2182 32.9305 27.2182 36.9691V38.0875L22.9342 40.6349Z" fill="white"/>
<path d="M51.66 59.0881H55.1251L56.3222 63.251H47.376V31.75H51.66V59.0881Z" fill="white"/>
<path d="M85.9976 31.7491V35.912H81.9025V63.2501H77.6183V35.912H73.8382L73.3972 31.7491H85.9976Z" fill="white"/>
<path d="M69.0497 31.7491H62.6235L59.3474 63.2501H63.2535L64.1985 54.8623H67.2225L68.0416 63.2501H72.3888L69.0497 31.7491ZM64.5764 50.6994L65.5215 39.1429H66.0255L66.7815 50.6994H64.5764Z" fill="white"/>
<path d="M36.1622 31.7491H31.689V63.2501H35.9731V35.5393C37.7372 35.5393 38.6192 35.6014 38.6192 38.5837V46.1018C38.6192 47.0959 37.7372 47.4065 36.7291 47.5307L37.7372 51.2588C41.1393 50.8859 42.9034 49.3326 42.9034 44.8591V37.9002C42.8403 33.6753 40.8873 31.7491 36.1622 31.7491Z" fill="white"/>
<path d="M87.1914 27.9592V25.0389H88.5144C88.7665 25.0389 88.9553 25.0389 89.1444 25.101L89.4594 25.3496C89.5225 25.4737 89.5854 25.5981 89.5854 25.7845C89.5854 25.9708 89.5225 26.1572 89.3965 26.2816C89.2703 26.4058 89.0815 26.5301 88.7665 26.5301L89.0184 26.6543C89.1444 26.7786 89.2074 26.9028 89.3334 27.0272L89.8375 27.8348H89.3334L88.9553 27.2136C88.8294 27.0272 88.7665 26.9028 88.7034 26.8407L88.5144 26.6543L88.3253 26.5922H88.1364H87.5693V27.9592H87.1914ZM87.5693 26.3437H88.3884C88.5774 26.3437 88.7034 26.3437 88.8294 26.2816L89.0815 26.0951L89.1444 25.8466L88.9553 25.536C88.8924 25.4737 88.7034 25.4116 88.4515 25.4116H87.5693V26.3437Z" fill="white"/>
<path d="M85.5544 26.5923C85.5544 28.0835 86.8145 29.3261 88.3895 29.3261C89.9015 29.3261 91.1616 28.0835 91.1616 26.5923C91.1616 25.1012 89.9015 23.8585 88.3895 23.8585C86.8145 23.8585 85.5544 25.1012 85.5544 26.5923ZM85.8695 26.5923C85.8695 25.2253 87.0034 24.1691 88.3265 24.1691C89.6496 24.1691 90.7836 25.2253 90.7836 26.5923C90.7836 27.897 89.7125 29.0155 88.3265 29.0155C87.0034 29.0155 85.8695 27.9591 85.8695 26.5923Z" fill="white"/>
</svg>
