<svg width="40" height="40" viewBox="0 0 40 40" fill="none" xmlns="http://www.w3.org/2000/svg">
<path d="M23.6963 28.418C27.703 27.6255 30.104 25.7831 30.2311 25.6842C31.4035 24.7713 31.5919 23.1083 30.6516 21.9698C29.7115 20.8314 27.9989 20.6486 26.8262 21.5614C26.8014 21.5809 24.2405 23.4883 20.027 23.491C15.8136 23.4883 13.1986 21.5809 13.1738 21.5614C12.0011 20.6486 10.2885 20.8314 9.34841 21.9698C8.40814 23.1083 8.59648 24.7713 9.76892 25.6842C9.89768 25.7845 12.3978 27.6748 16.5168 28.4487L10.7762 34.2739C9.73297 35.3244 9.76434 36.997 10.8463 38.01C11.3743 38.5044 12.0549 38.7501 12.735 38.7501C13.4479 38.7501 14.1602 38.4796 14.6941 37.9419L20.0271 32.4258L25.8988 37.9776C26.9627 39.0089 28.6854 39.0072 29.7473 37.9747C30.8091 36.942 30.8078 35.269 29.7443 34.238L23.6963 28.418Z" fill="#282828"/>
<path d="M20.1631 1.25C14.6356 1.25 10.1548 5.60079 10.1548 10.9676C10.1548 16.3345 14.6356 20.6856 20.1631 20.6856C25.6906 20.6856 30.1714 16.3345 30.1714 10.9676C30.1714 5.60079 25.6906 1.25 20.1631 1.25ZM20.1631 14.9849C17.8782 14.9849 16.0259 13.1862 16.0259 10.9677C16.0259 8.74922 17.8782 6.95069 20.1631 6.95069C22.448 6.95069 24.3003 8.74922 24.3003 10.9677C24.3003 13.1862 22.448 14.9849 20.1631 14.9849Z" fill="#282828"/>
</svg>
